<svg y="0" x="0" height="512" width="512" viewBox="0 0 587.28 609.7"
    xmlns="http://www.w3.org/2000/svg" data-name="helpdesk">
    <path fill="#0ea5e9" d="m289.75,39.03l258.17,0c6.95,0 12.63,5.68 12.63,12.63l0,200.65c0,6.94 -5.68,12.63 -12.63,12.63l-258.17,0c-6.95,0 -12.63,-5.68 -12.63,-12.63l0,-54.74c0,-9.88 8.06,-17.93 17.93,-17.93l94.01,0c11.51,0 21.41,3.97 29.74,11.93c9.83,9.4 23.15,15.17 37.82,15.17c17.55,0 33.17,-8.26 43.19,-21.1c1.44,-1.85 1.69,-4.2 0.66,-6.3c-1.03,-2.1 -3.03,-3.36 -5.37,-3.36l-38.45,0c-2.76,0 -5.14,-1.21 -6.76,-3.44l-11.39,-15.62c-2.18,-2.99 -2.18,-6.88 0,-9.86l11.39,-15.62c1.63,-2.23 4,-3.44 6.76,-3.44l38.45,0c2.34,0 4.35,-1.25 5.37,-3.36s0.78,-4.46 -0.66,-6.3c-10.02,-12.84 -25.64,-21.1 -43.19,-21.1c-14.67,0 -27.99,5.77 -37.82,15.17c-8.32,7.95 -18.23,11.93 -29.74,11.93l-94.01,0c-9.88,0 -17.93,-8.06 -17.93,-17.93l0,-54.73c0,-6.95 5.68,-12.63 12.63,-12.63l0,0l0,-0.02zm-12.63,118.36l116.68,0c2.98,0 5.41,-2.43 5.41,-5.41c0,-2.98 -2.44,-5.41 -5.41,-5.41l-116.68,0l0,10.83l0,-0.01z" />
    <path fill="#0ea5e9" d="m252.63,51.66l0,258.17c0,6.95 -5.68,12.63 -12.63,12.63l-52.42,0c-9.88,0 -17.93,-8.06 -17.93,-17.93l0,-35.39c-7.01,-4.86 -11.19,-12.85 -11.19,-21.38s4.18,-16.52 11.19,-21.38c0,0 -0.03,-5.26 -0.09,-15.77c-6.68,-4.43 -14.83,-7.1 -23.28,-8.01l0,-75.1l6.68,-8.46l-6.68,-21.26l-12.81,0l-6.68,21.26l6.68,8.46l0,75.06c-8.59,0.87 -16.9,3.55 -23.68,8.05c-0.06,10.51 -0.09,15.77 -0.09,15.77c7.01,4.86 11.19,12.85 11.19,21.38s-4.18,16.52 -11.19,21.38l0,35.39c0,9.88 -8.06,17.93 -17.93,17.93l-52.41,0c-6.95,0 -12.63,-5.68 -12.63,-12.63l0,-258.17c0,-6.95 5.68,-12.63 12.63,-12.63l200.65,0c6.94,0 12.63,5.68 12.63,12.63l-0.01,0z" />
    <path fill="#0ea5e9" d="m297.53,344.77l-258.18,0c-6.95,0 -12.63,5.68 -12.63,12.63l0,151.54c0,6.95 5.68,12.63 12.63,12.63l69.96,0c1.66,0 3.08,0.64 4.19,1.87c1.1,1.24 1.58,2.72 1.39,4.37l-1.13,10.01c-0.54,4.75 -4.51,8.3 -9.3,8.3l-28.14,0c-6.75,0 -12.28,5.52 -12.28,12.28l0,6.82c0,3 2.45,5.45 5.45,5.45l197.86,0c3,0 5.45,-2.46 5.45,-5.45l0,-6.82c0,-6.75 -5.53,-12.28 -12.28,-12.28l-28.14,0c-4.78,0 -8.76,-3.55 -9.3,-8.3l-1.13,-10.01c-0.19,-1.65 0.29,-3.14 1.39,-4.37c1.1,-1.24 2.53,-1.87 4.19,-1.87l69.97,0c6.95,0 12.63,-5.68 12.63,-12.63l0,-151.54c0,-6.95 -5.68,-12.63 -12.63,-12.63l0.03,0zm-5.87,132.69c0,8.44 -6.9,15.34 -15.34,15.34l-215.76,0c-8.44,0 -15.34,-6.9 -15.34,-15.34l0,-98.85c0,-8.44 6.9,-15.34 15.34,-15.34l215.75,0c8.44,0 15.34,6.9 15.34,15.34l0,98.85l0.01,0z" />
    <path fill="#0ea5e9" d="m547.92,287.24l-200.65,0c-6.95,0 -12.63,5.68 -12.63,12.63l0,258.17c0,6.95 5.68,12.63 12.63,12.63l200.65,0c6.95,0 12.63,-5.68 12.63,-12.63l0,-258.17c0,-6.95 -5.68,-12.63 -12.63,-12.63zm-100.32,252.87c-28.89,0 -52.31,-23.42 -52.31,-52.31s23.42,-52.31 52.31,-52.31s52.31,23.42 52.31,52.31s-23.42,52.31 -52.31,52.31zm77.86,-141.98c0,3.43 -2.81,6.24 -6.25,6.24l-143.22,0c-3.43,0 -6.24,-2.81 -6.24,-6.24l0,-15.5c0,-3.44 2.81,-6.24 6.24,-6.24l143.22,0c3.43,0 6.25,2.81 6.25,6.24l0,15.5zm0,-43.22c0,3.44 -2.81,6.25 -6.25,6.25l-143.22,0c-3.43,0 -6.24,-2.81 -6.24,-6.25l0,-15.5c0,-3.44 2.81,-6.25 6.24,-6.25l143.22,0c3.43,0 6.25,2.81 6.25,6.25l0,15.5z" />
</svg>